<?xml version="1.0" encoding="UTF-8" standalone="no"?>
<!-- Created with Inkscape (http://www.inkscape.org/) -->

<svg
   xmlns:dc="http://purl.org/dc/elements/1.1/"
   xmlns:cc="http://creativecommons.org/ns#"
   xmlns:rdf="http://www.w3.org/1999/02/22-rdf-syntax-ns#"
   xmlns:svg="http://www.w3.org/2000/svg"
   xmlns="http://www.w3.org/2000/svg"
   xmlns:sodipodi="http://sodipodi.sourceforge.net/DTD/sodipodi-0.dtd"
   xmlns:inkscape="http://www.inkscape.org/namespaces/inkscape"
   width="511.99997"
   height="126.50003"
   viewBox="0 0 135.46665 33.469801"
   version="1.1"
   id="svg8"
   inkscape:version="0.92.2 (5c3e80d, 2017-08-06)"
   sodipodi:docname="Logo_BizInfluencer_FullTrademark_Transparent_AllWhite.svg"
   inkscape:export-filename="D:\Works\Professional Folder\Freelance\Thunderlabs\BizAppMarket\BizInfluencer\Logo_BizInfluencer_FullTrademark_Transparent_AllWhite.png"
   inkscape:export-xdpi="96"
   inkscape:export-ydpi="96">
  <defs
     id="defs2" />
  <sodipodi:namedview
     id="base"
     pagecolor="#ffffff"
     bordercolor="#666666"
     borderopacity="1.0"
     inkscape:pageopacity="0.0"
     inkscape:pageshadow="2"
     inkscape:zoom="2"
     inkscape:cx="283.93582"
     inkscape:cy="28.454851"
     inkscape:document-units="px"
     inkscape:current-layer="layer1"
     showgrid="false"
     inkscape:window-width="1920"
     inkscape:window-height="1001"
     inkscape:window-x="-9"
     inkscape:window-y="-9"
     inkscape:window-maximized="1"
     units="px"
     inkscape:pagecheckerboard="true"
     borderlayer="true"
     inkscape:showpageshadow="false"
     inkscape:snap-global="true"
     fit-margin-top="0"
     fit-margin-left="0"
     fit-margin-right="0"
     fit-margin-bottom="0" />
  <metadata
     id="metadata5">
    <rdf:RDF>
      <cc:Work
         rdf:about="">
        <dc:format>image/svg+xml</dc:format>
        <dc:type
           rdf:resource="http://purl.org/dc/dcmitype/StillImage" />
        <dc:title />
      </cc:Work>
    </rdf:RDF>
  </metadata>
  <g
     inkscape:groupmode="layer"
     id="layer2"
     inkscape:label="bg"
     transform="translate(0,-4.9666014e-6)" />
  <g
     inkscape:label="Layer 1"
     inkscape:groupmode="layer"
     id="layer1"
     transform="translate(0,-161.53332)">
    <g
       id="g846"
       transform="translate(4.2373173)">
      <path
         sodipodi:nodetypes="cccccccccscccsccsccccc"
         id="path1087-1-1-8-9-2-8-4"
         d="m 46.384239,178.37315 c -0.67714,0 -1.29106,0.13214 -1.842546,0.39748 -0.544511,0.2583 -1.009385,0.63895 -1.393338,1.14157 l -0.114625,-1.32954 c -1.560204,-1.24225 -1.652255,1.3443 -3.309348,0.74323 v 10.5863 h 3.529205 v -7.99964 c 0.153667,-0.25131 0.352318,-0.45086 0.596651,-0.5975 0.251308,-0.14666 0.565434,-0.21989 0.942396,-0.21989 0.251325,0 0.474485,0.0244 0.669948,0.0733 0.202455,0.0419 0.370021,0.12613 0.502666,0.25175 0.139653,0.12564 0.244901,0.29661 0.31471,0.51303 0.07675,0.2164 0.114626,0.49514 0.114626,0.83722 v 7.14173 h 3.539398 v -7.13054 c 0,-0.82375 -0.08676,-1.51514 -0.261252,-2.07361 -0.167549,-0.56547 -0.408396,-1.0194 -0.722539,-1.36146 -0.314143,-0.34903 -0.691421,-0.59656 -1.131218,-0.74323 -0.432823,-0.15366 -0.911162,-0.2302 -1.434734,-0.2302 z"
         style="font-style:normal;font-variant:normal;font-weight:normal;font-stretch:normal;font-size:medium;line-height:1.25;font-family:Roboto;-inkscape-font-specification:Roboto;text-align:start;letter-spacing:0px;word-spacing:0px;text-anchor:start;fill:#4057d6;fill-opacity:1;stroke:none;stroke-width:0.53613645"
         inkscape:connector-curvature="0" />
      <path
         sodipodi:nodetypes="czzzccc"
         d="m 32.269707,189.89672 c 0,0 1.607656,-10.79703 1.704045,-11.39056 0.09644,-0.59356 0.724407,-1.43593 1.832501,-1.43593 1.10811,0 1.832501,0.8413 1.832501,1.43593 0,0.59464 0,11.39056 0,11.39056 h -1.832501 z"
         style="font-style:normal;font-variant:normal;font-weight:normal;font-stretch:normal;font-size:medium;line-height:1.25;font-family:Roboto;-inkscape-font-specification:Roboto;text-align:start;letter-spacing:0px;word-spacing:0px;text-anchor:start;fill:#4057d6;fill-opacity:1;stroke:none;stroke-width:0.53613645"
         id="path890-9-1-7-9-3-3-4-2"
         inkscape:connector-curvature="0" />
      <path
         d="m 14.732003,184.07786 q -0.08376,0.70159 -0.272264,1.41365 -0.188489,0.7016 -0.481692,1.36128 -0.293187,0.64923 -0.701583,1.22516 -0.40838,0.56545 -0.952891,0.98431 -0.53405,0.40838 -1.204215,0.63876 -0.670165,0.23039 -1.4869407,0.20941 -0.879594,-0.0209 -1.6230727,-0.36648 -0.7330005,-0.35604 -1.2356161,-1.08904 l -0.3979179,1.23563 H 4.1035122 l 2.7853921,-16.0841 h 2.4922052 l -1.1309185,5.85353 q 0.6073467,-0.64922 1.3508086,-0.98429 0.7434784,-0.34556 1.6544904,-0.32464 0.77488,0.021 1.350809,0.27227 0.575929,0.2513 0.984308,0.67016 0.418857,0.41886 0.670182,0.97385 0.261786,0.55497 0.38744,1.18326 0.136148,0.62828 0.14666,1.29846 0.02086,0.65969 -0.04188,1.29846 z m -2.460787,-0.23036 q 0.0629,-0.54452 0.0629,-1.16234 0.01001,-0.62829 -0.157005,-1.1623 -0.157005,-0.54453 -0.554989,-0.91103 -0.38744,-0.3665 -1.109963,-0.38742 -0.8377145,-0.021 -1.4555226,0.38742 -0.6178247,0.39792 -1.0785612,1.0576 l -0.8167754,4.69121 q 0.4607532,1.42411 1.9790948,1.47648 0.7853577,0.0209 1.3298694,-0.31416 0.554989,-0.34556 0.921489,-0.89007 0.366501,-0.55499 0.565451,-1.22516 0.209429,-0.68064 0.293204,-1.34034 z"
         style="font-style:italic;font-variant:normal;font-weight:500;font-stretch:normal;font-size:medium;line-height:1.25;font-family:Roboto;-inkscape-font-specification:'Roboto Medium Italic';text-align:start;letter-spacing:0px;word-spacing:0px;text-anchor:start;fill:#ffffff;fill-opacity:1;stroke:none;stroke-width:0.53613645"
         id="path1079-5-5-6-6-7-3-8"
         inkscape:connector-curvature="0" />
      <path
         d="m 18.554061,189.69054 h -2.481727 l 1.968633,-11.33007 h 2.481727 z m -0.157005,-14.23065 q 0,-0.30367 0.104781,-0.55498 0.104781,-0.26178 0.282742,-0.45025 0.188473,-0.18851 0.439797,-0.29323 0.261786,-0.10478 0.565451,-0.11512 0.293204,-0.01 0.544512,0.0838 0.261786,0.0943 0.450275,0.27228 0.188489,0.17799 0.303665,0.4293 0.115125,0.24086 0.115125,0.54453 0,0.30367 -0.104781,0.55497 -0.104781,0.25133 -0.293203,0.43982 -0.188473,0.17801 -0.450259,0.2827 -0.251324,0.10479 -0.544511,0.11513 -0.293203,0.01 -0.554989,-0.0838 -0.251325,-0.0943 -0.439797,-0.26179 -0.18849,-0.17801 -0.303682,-0.41885 -0.115126,-0.24083 -0.115126,-0.54451 z"
         style="font-style:italic;font-variant:normal;font-weight:500;font-stretch:normal;font-size:medium;line-height:1.25;font-family:Roboto;-inkscape-font-specification:'Roboto Medium Italic';text-align:start;letter-spacing:0px;word-spacing:0px;text-anchor:start;fill:#ffffff;fill-opacity:1;stroke:none;stroke-width:0.53613645"
         id="path1081-4-8-9-0-7-4-7"
         inkscape:connector-curvature="0" />
      <path
         d="m 24.480884,187.65909 h 5.769751 l -0.324621,2.03145 h -8.932105 l 0.282725,-1.76965 6.670285,-7.50803 h -5.403251 l 0.324621,-2.05239 h 8.617979 l -0.261786,1.71733 z"
         style="font-style:italic;font-variant:normal;font-weight:500;font-stretch:normal;font-size:medium;line-height:1.25;font-family:Roboto;-inkscape-font-specification:'Roboto Medium Italic';text-align:start;letter-spacing:0px;word-spacing:0px;text-anchor:start;fill:#ffffff;fill-opacity:1;stroke:none;stroke-width:0.53613645"
         id="path1083-7-3-3-8-2-1-23"
         inkscape:connector-curvature="0" />
      <path
         d="M 52.677662,189.69054 V 180.8108 H 51.03365 v -2.45033 h 1.644012 v -0.92149 q 0,-0.98431 0.303682,-1.73825 0.303665,-0.7644 0.869116,-1.27751 0.565467,-0.51309 1.361287,-0.77488 0.806297,-0.26179 1.811561,-0.26179 0.450275,0 0.858655,0.0627 0.408379,0.0629 0.795836,0.15701 l 0.01001,2.59694 q -0.178028,-0.0524 -0.387457,-0.0733 -0.198951,-0.021 -0.481676,-0.021 -0.774896,0 -1.193737,0.34556 -0.408396,0.33508 -0.408396,0.9843 v 0.92149 h 2.209463 v 2.45031 h -2.209463 v 8.87977 z"
         style="font-style:normal;font-variant:normal;font-weight:normal;font-stretch:normal;font-size:medium;line-height:1.25;font-family:Roboto;-inkscape-font-specification:Roboto;text-align:start;letter-spacing:0px;word-spacing:0px;text-anchor:start;fill:#ffffff;fill-opacity:1;stroke:none;stroke-width:0.53613645"
         id="path1089-9-8-7-4-7-3-4"
         inkscape:connector-curvature="0" />
      <path
         d="m 63.410868,189.69054 h -3.539332 v -16.0841 h 3.539332 z"
         style="font-style:normal;font-variant:normal;font-weight:normal;font-stretch:normal;font-size:medium;line-height:1.25;font-family:Roboto;-inkscape-font-specification:Roboto;text-align:start;letter-spacing:0px;word-spacing:0px;text-anchor:start;fill:#ffffff;fill-opacity:1;stroke:none;stroke-width:0.53613645"
         id="path1091-2-4-3-2-2-8-1"
         inkscape:connector-curvature="0" />
      <path
         d="m 72.34299,188.46539 q -0.53405,0.68064 -1.28799,1.05762 -0.75394,0.37696 -1.738249,0.37696 -0.837715,0 -1.539298,-0.23037 -0.691121,-0.24084 -1.193737,-0.74347 -0.49217,-0.5131 -0.774896,-1.30893 -0.272247,-0.8063 -0.272247,-1.92674 v -7.32999 h 3.528854 v 7.35093 q 0,0.75394 0.356039,1.10999 0.3665,0.35601 1.057605,0.35601 0.659704,0 1.068083,-0.23037 0.418857,-0.23037 0.659704,-0.63875 v -7.94781 h 3.54981 v 11.33007 h -3.308964 z"
         style="font-style:normal;font-variant:normal;font-weight:normal;font-stretch:normal;font-size:medium;line-height:1.25;font-family:Roboto;-inkscape-font-specification:Roboto;text-align:start;letter-spacing:0px;word-spacing:0px;text-anchor:start;fill:#ffffff;fill-opacity:1;stroke:none;stroke-width:0.53613645"
         id="path1093-2-2-4-0-6-9-4"
         inkscape:connector-curvature="0" />
      <path
         d="m 83.180893,189.89997 q -1.38221,0 -2.471249,-0.43979 -1.089023,-0.4398 -1.832501,-1.19376 -0.743462,-0.75392 -1.14138,-1.74871 -0.38744,-0.99477 -0.38744,-2.11522 v -0.39792 q 0,-1.23563 0.335083,-2.30372 0.34556,-1.07856 1.026204,-1.86388 0.691104,-0.78538 1.706847,-1.23565 1.026188,-0.45028 2.387474,-0.45028 1.204215,0 2.157106,0.38744 0.963369,0.38744 1.623073,1.10998 0.670165,0.72252 1.015726,1.74873 0.356022,1.02618 0.356022,2.3037 v 1.4346 h -7.015846 q 0.188489,0.95289 0.827254,1.4974 0.638747,0.54451 1.654473,0.54451 0.722539,0 1.413644,-0.27223 0.701583,-0.27228 1.204215,-0.90057 l 1.612595,1.9058 q -0.272247,0.377 -0.701583,0.733 -0.418857,0.35602 -0.984308,0.63878 -0.565468,0.27223 -1.267051,0.43978 -0.701583,0.17801 -1.518358,0.17801 z m -0.397901,-9.02634 q -0.450275,0 -0.77488,0.15701 -0.324621,0.157 -0.544528,0.42932 -0.209429,0.27226 -0.335083,0.64922 -0.125637,0.37698 -0.188489,0.81678 h 3.560289 v -0.27225 q 0.02086,-0.84819 -0.429319,-1.30893 -0.450275,-0.47122 -1.28799,-0.47122 z"
         style="font-style:normal;font-variant:normal;font-weight:normal;font-stretch:normal;font-size:medium;line-height:1.25;font-family:Roboto;-inkscape-font-specification:Roboto;text-align:start;letter-spacing:0px;word-spacing:0px;text-anchor:start;fill:#ffffff;fill-opacity:1;stroke:none;stroke-width:0.53613645"
         id="path1095-2-3-8-2-3-8-1"
         inkscape:connector-curvature="0" />
      <path
         d="m 92.626109,178.36047 0.115125,1.32989 q 0.575929,-0.75396 1.392705,-1.1414 0.827253,-0.39792 1.842962,-0.39792 0.785358,0 1.434601,0.23037 0.659687,0.21991 1.130901,0.74349 0.471215,0.51308 0.722539,1.36129 0.26177,0.8377 0.26177,2.07332 v 7.13103 h -3.539333 v -7.1415 q 0,-0.51311 -0.115125,-0.83771 -0.104781,-0.32462 -0.314143,-0.51311 -0.198951,-0.18847 -0.502633,-0.25131 -0.293186,-0.0733 -0.670165,-0.0733 -0.565467,0 -0.942429,0.21989 -0.3665,0.21991 -0.596869,0.59687 v 8.00017 h -3.528887 v -11.33007 z"
         style="font-style:normal;font-variant:normal;font-weight:normal;font-stretch:normal;font-size:medium;line-height:1.25;font-family:Roboto;-inkscape-font-specification:Roboto;text-align:start;letter-spacing:0px;word-spacing:0px;text-anchor:start;fill:#ffffff;fill-opacity:1;stroke:none;stroke-width:0.53613645"
         id="path1097-7-9-7-7-8-4-5"
         inkscape:connector-curvature="0" />
      <path
         d="m 106.28084,187.1774 q 0.74348,0 1.15186,-0.3979 0.40838,-0.4084 0.39791,-1.13092 h 3.30897 q 0,0.96337 -0.3665,1.74873 -0.35602,0.77488 -0.99479,1.34033 -0.63875,0.55499 -1.51836,0.85867 -0.87959,0.30366 -1.89532,0.30366 -1.32987,0 -2.32465,-0.43979 -0.99479,-0.4398 -1.66495,-1.20422 -0.65971,-0.77488 -0.99479,-1.82202 -0.33508,-1.05762 -0.33508,-2.28278 v -0.24085 q 0,-1.22515 0.33508,-2.28276 0.33508,-1.05762 0.99479,-1.82202 0.65968,-0.77489 1.64401,-1.21469 0.99478,-0.4398 2.31418,-0.4398 1.06808,0 1.94767,0.30367 0.89007,0.30369 1.51836,0.89009 0.63877,0.57591 0.98433,1.42412 0.35602,0.84816 0.35602,1.92672 h -3.30897 q 0,-0.37698 -0.0943,-0.71206 -0.0837,-0.33509 -0.28272,-0.57593 -0.19897,-0.25129 -0.50263,-0.38744 -0.29321,-0.14666 -0.70159,-0.14666 -0.54451,0 -0.87961,0.25131 -0.3246,0.24084 -0.50261,0.6597 -0.17803,0.40838 -0.24085,0.96337 -0.0524,0.55499 -0.0524,1.16232 v 0.24084 q 0,0.62829 0.0524,1.18328 0.0629,0.54451 0.24085,0.96337 0.17801,0.40838 0.51309,0.64922 0.34556,0.23037 0.90053,0.23037 z"
         style="font-style:normal;font-variant:normal;font-weight:normal;font-stretch:normal;font-size:medium;line-height:1.25;font-family:Roboto;-inkscape-font-specification:Roboto;text-align:start;letter-spacing:0px;word-spacing:0px;text-anchor:start;fill:#ffffff;fill-opacity:1;stroke:none;stroke-width:0.53613645"
         id="path1099-7-9-6-6-0-8-35"
         inkscape:connector-curvature="0" />
      <path
         d="m 118.11353,189.89997 q -1.38221,0 -2.47125,-0.43979 -1.08902,-0.4398 -1.83249,-1.19376 -0.74347,-0.75392 -1.14139,-1.74871 -0.38744,-0.99477 -0.38744,-2.11522 v -0.39792 q 0,-1.23563 0.33508,-2.30372 0.34556,-1.07856 1.0262,-1.86388 0.69113,-0.78538 1.70685,-1.23565 1.02619,-0.45028 2.38748,-0.45028 1.20421,0 2.1571,0.38744 0.96339,0.38744 1.62307,1.10998 0.67019,0.72252 1.01573,1.74873 0.35604,1.02618 0.35604,2.3037 v 1.4346 h -7.01585 q 0.18848,0.95289 0.82724,1.4974 0.63875,0.54451 1.65447,0.54451 0.72254,0 1.41365,-0.27223 0.70158,-0.27228 1.20421,-0.90057 l 1.6126,1.9058 q -0.27225,0.377 -0.70159,0.733 -0.41885,0.35602 -0.9843,0.63878 -0.56545,0.27223 -1.26704,0.43978 -0.7016,0.17801 -1.51837,0.17801 z m -0.3979,-9.02634 q -0.45028,0 -0.77488,0.15701 -0.32462,0.157 -0.54453,0.42932 -0.20941,0.27226 -0.33508,0.64922 -0.12564,0.37698 -0.18848,0.81678 h 3.56028 v -0.27225 q 0.0208,-0.84819 -0.42934,-1.30893 -0.45026,-0.47122 -1.28797,-0.47122 z"
         style="font-style:normal;font-variant:normal;font-weight:normal;font-stretch:normal;font-size:medium;line-height:1.25;font-family:Roboto;-inkscape-font-specification:Roboto;text-align:start;letter-spacing:0px;word-spacing:0px;text-anchor:start;fill:#ffffff;fill-opacity:1;stroke:none;stroke-width:0.53613645"
         id="path1101-4-2-2-8-7-8-9"
         inkscape:connector-curvature="0" />
      <g
         style="stroke:#4057d6;stroke-opacity:1"
         transform="matrix(1.5696127,0.56583675,-0.56583675,1.5696127,90.364159,-152.9059)"
         id="g2116-0-0-6">
        <path
           style="fill:none;stroke:#4057d6;stroke-width:1.13699937;stroke-linecap:round;stroke-linejoin:miter;stroke-miterlimit:4;stroke-dasharray:none;stroke-opacity:1"
           d="m 35.146881,195.79025 c 0,0 0.57612,-0.3717 1.309678,-0.3717 0.733557,0 1.309677,0.3717 1.309677,0.3717"
           id="path861-4-2-2-3-29"
           inkscape:connector-curvature="0"
           sodipodi:nodetypes="czc" />
        <path
           style="fill:none;stroke:#4057d6;stroke-width:1.26394832;stroke-linecap:round;stroke-linejoin:miter;stroke-miterlimit:4;stroke-dasharray:none;stroke-opacity:1"
           d="m 34.033708,193.83444 c 0,0 1.065799,-0.65111 2.422852,-0.65111 1.357052,0 2.422851,0.65111 2.422851,0.65111"
           id="path861-6-4-4-6-5-7"
           inkscape:connector-curvature="0"
           sodipodi:nodetypes="czc" />
        <path
           style="fill:none;stroke:#4057d6;stroke-width:1.32291663;stroke-linecap:round;stroke-linejoin:miter;stroke-miterlimit:4;stroke-dasharray:none;stroke-opacity:1"
           d="m 32.741969,191.66702 c 0,0 1.634028,-0.82328 3.714591,-0.82328 2.080563,0 3.71459,0.82328 3.71459,0.82328"
           id="path861-6-9-6-3-5-7-9"
           inkscape:connector-curvature="0"
           sodipodi:nodetypes="czc" />
      </g>
    </g>
  </g>
</svg>
